# xmcd
#
# Track frame offsets:
#	150
#	5270
#	11705
#	23337
#	44164
#	59275
#	70290
#	83887
#	95297
#	97370
#
# Disc length: 1460 seconds
#
# Revision: 0
# Processed by: cddbd v1.4PL0 Copyright (c) Steve Scherf et al.
# Submitted via: EasyCDDAExtractor 4.6.0.1
#
DISCID=7b05b20a
DTITLE=Stone Soul Picnic - When Something Is Wrong
DYEAR=1900
DGENRE=Soul
TTITLE0=Can't Turn You Loose
TTITLE1=You Don't Know Like I Know
TTITLE2=You Got Me Humming
TTITLE3=When Something Is Wrong
TTITLE4=Thank You
TTITLE5=Don't Knock My Love
TTITLE6=Don't Fight It
TTITLE7=You Don't Know What You Mean
TTITLE8=Hip Hug Her
TTITLE9=Caledonia
EXTD=
EXTT0=
EXTT1=
EXTT2=
EXTT3=
EXTT4=
EXTT5=
EXTT6=
EXTT7=
EXTT8=
EXTT9=
PLAYORDER=
